<mxfile host="Electron" agent="Mozilla/5.0 (Macintosh; Intel Mac OS X 10_15_7) AppleWebKit/537.36 (KHTML, like Gecko) draw.io/26.2.15 Chrome/134.0.6998.205 Electron/35.2.1 Safari/537.36" version="26.2.15">
  <diagram name="Page-1" id="ZRe_wIOORr0k_d4isBBX">
    <mxGraphModel dx="3685" dy="1730" grid="1" gridSize="10" guides="1" tooltips="1" connect="1" arrows="1" fold="1" page="1" pageScale="1" pageWidth="1169" pageHeight="827" math="0" shadow="0">
      <root>
        <mxCell id="0" />
        <mxCell id="1" parent="0" />
        <UserObject label="&lt;div&gt;&lt;i&gt;https://university.example/Credential123&lt;/i&gt;&lt;/div&gt;&lt;div&gt;&lt;i&gt;(Type: VerifiableCredential, ExampleAlumniCredential)&lt;/i&gt;&lt;/div&gt;" id="I-3xDNqU13IutiKupr62-4">
          <mxCell style="ellipse;whiteSpace=wrap;html=1;fontSize=16;fillColor=none;strokeWidth=2;strokeColor=#336600;" parent="1" vertex="1">
            <mxGeometry x="-2041.5" y="-700" width="480" height="70" as="geometry" />
          </mxCell>
        </UserObject>
        <UserObject label="&lt;div&gt;&lt;i&gt;2010-01-01T00:00:00Z&lt;/i&gt;&lt;/div&gt;" id="HRplg5cOvGm0gZk61Yn5-5">
          <mxCell style="rounded=0;whiteSpace=wrap;html=1;fontSize=16;fillColor=none;strokeWidth=2;" parent="1" vertex="1">
            <mxGeometry x="-1510" y="-455.19" width="240" height="40" as="geometry" />
          </mxCell>
        </UserObject>
        <mxCell id="HRplg5cOvGm0gZk61Yn5-10" value="" style="endArrow=classic;html=1;rounded=0;fontSize=12;startSize=8;endSize=8;curved=1;entryX=0.5;entryY=0;entryDx=0;entryDy=0;exitX=1;exitY=1;exitDx=0;exitDy=0;strokeWidth=2;fontStyle=2;" parent="1" source="I-3xDNqU13IutiKupr62-4" target="HRplg5cOvGm0gZk61Yn5-5" edge="1">
          <mxGeometry width="50" height="50" relative="1" as="geometry">
            <mxPoint x="-1940" y="-320" as="sourcePoint" />
            <mxPoint x="-1797" y="-175" as="targetPoint" />
          </mxGeometry>
        </mxCell>
        <mxCell id="HRplg5cOvGm0gZk61Yn5-11" value="validFrom" style="edgeLabel;html=1;align=center;verticalAlign=middle;resizable=0;points=[];fontSize=16;labelBackgroundColor=none;" parent="HRplg5cOvGm0gZk61Yn5-10" vertex="1" connectable="0">
          <mxGeometry x="0.1345" y="-2" relative="1" as="geometry">
            <mxPoint x="39" y="-9" as="offset" />
          </mxGeometry>
        </mxCell>
        <UserObject label="&lt;div&gt;&lt;i style=&quot;background-color: initial;&quot;&gt;https://www.example.org/persons/pat&lt;/i&gt;&lt;/div&gt;" id="HRplg5cOvGm0gZk61Yn5-12">
          <mxCell style="ellipse;whiteSpace=wrap;html=1;fontSize=16;fillColor=none;strokeWidth=2;strokeColor=#336600;" parent="1" vertex="1">
            <mxGeometry x="-1970" y="-464.34" width="337" height="58.3" as="geometry" />
          </mxCell>
        </UserObject>
        <mxCell id="HRplg5cOvGm0gZk61Yn5-13" value="" style="endArrow=classic;html=1;rounded=0;fontSize=12;startSize=8;endSize=8;curved=1;exitX=0.5;exitY=1;exitDx=0;exitDy=0;strokeWidth=2;fontStyle=2;entryX=0.5;entryY=0;entryDx=0;entryDy=0;" parent="1" source="I-3xDNqU13IutiKupr62-4" target="HRplg5cOvGm0gZk61Yn5-12" edge="1">
          <mxGeometry width="50" height="50" relative="1" as="geometry">
            <mxPoint x="-2140" y="-490" as="sourcePoint" />
            <mxPoint x="-1890" y="-310" as="targetPoint" />
          </mxGeometry>
        </mxCell>
        <mxCell id="HRplg5cOvGm0gZk61Yn5-14" value="credentialSubject" style="edgeLabel;html=1;align=center;verticalAlign=middle;resizable=0;points=[];fontSize=16;labelBackgroundColor=none;" parent="HRplg5cOvGm0gZk61Yn5-13" vertex="1" connectable="0">
          <mxGeometry x="0.1345" y="-2" relative="1" as="geometry">
            <mxPoint x="69" y="-5" as="offset" />
          </mxGeometry>
        </mxCell>
        <mxCell id="HRplg5cOvGm0gZk61Yn5-16" value="" style="endArrow=classic;html=1;rounded=0;fontSize=12;startSize=8;endSize=8;curved=1;entryX=0.5;entryY=0;entryDx=0;entryDy=0;exitX=1;exitY=1;exitDx=0;exitDy=0;strokeWidth=2;fontStyle=2;" parent="1" source="HRplg5cOvGm0gZk61Yn5-12" target="HRplg5cOvGm0gZk61Yn5-15" edge="1">
          <mxGeometry width="50" height="50" relative="1" as="geometry">
            <mxPoint x="-1850" y="-310" as="sourcePoint" />
            <mxPoint x="-1417" y="-310" as="targetPoint" />
          </mxGeometry>
        </mxCell>
        <mxCell id="HRplg5cOvGm0gZk61Yn5-17" value="name" style="edgeLabel;html=1;align=center;verticalAlign=middle;resizable=0;points=[];fontSize=16;labelBackgroundColor=none;" parent="HRplg5cOvGm0gZk61Yn5-16" vertex="1" connectable="0">
          <mxGeometry x="0.1345" y="-2" relative="1" as="geometry">
            <mxPoint x="28" y="-5" as="offset" />
          </mxGeometry>
        </mxCell>
        <mxCell id="HRplg5cOvGm0gZk61Yn5-20" value="" style="endArrow=classic;html=1;rounded=0;fontSize=12;startSize=8;endSize=8;curved=1;entryX=0.5;entryY=0;entryDx=0;entryDy=0;exitX=0;exitY=1;exitDx=0;exitDy=0;strokeWidth=2;fontStyle=2" parent="1" source="HRplg5cOvGm0gZk61Yn5-12" target="E5f-8hAcM4Bx_eA0MOKK-1" edge="1">
          <mxGeometry width="50" height="50" relative="1" as="geometry">
            <mxPoint x="-1710" y="-230" as="sourcePoint" />
            <mxPoint x="-1563" y="-340" as="targetPoint" />
          </mxGeometry>
        </mxCell>
        <mxCell id="HRplg5cOvGm0gZk61Yn5-21" value="alumniOf" style="edgeLabel;html=1;align=center;verticalAlign=middle;resizable=0;points=[];fontSize=16;labelBackgroundColor=none;" parent="HRplg5cOvGm0gZk61Yn5-20" vertex="1" connectable="0">
          <mxGeometry x="0.1345" y="-2" relative="1" as="geometry">
            <mxPoint x="36" y="5" as="offset" />
          </mxGeometry>
        </mxCell>
        <UserObject label="&lt;i&gt;Pat&lt;/i&gt;" id="HRplg5cOvGm0gZk61Yn5-15">
          <mxCell style="rounded=0;whiteSpace=wrap;html=1;fontSize=16;fillColor=none;strokeWidth=2;" parent="1" vertex="1">
            <mxGeometry x="-1684" y="-285" width="160" height="30" as="geometry" />
          </mxCell>
        </UserObject>
        <UserObject label="&lt;i&gt;Example University&lt;/i&gt;" id="HRplg5cOvGm0gZk61Yn5-19">
          <mxCell style="rounded=0;whiteSpace=wrap;html=1;fontSize=16;fillColor=none;strokeWidth=2;" parent="1" vertex="1">
            <mxGeometry x="-2151.5" y="-130" width="240" height="37" as="geometry" />
          </mxCell>
        </UserObject>
        <UserObject label="&lt;div&gt;&lt;i style=&quot;background-color: initial;&quot;&gt;did:example:&lt;/i&gt;&lt;span style=&quot;background-color: initial;&quot;&gt;&lt;i&gt;c276e12ec21ebfeb1f712ebc6f1&lt;/i&gt;&lt;/span&gt;&lt;/div&gt;" id="E5f-8hAcM4Bx_eA0MOKK-1">
          <mxCell style="ellipse;whiteSpace=wrap;html=1;fontSize=16;fillColor=none;strokeWidth=2;strokeColor=#336600;" parent="1" vertex="1">
            <mxGeometry x="-2200" y="-300" width="337" height="60" as="geometry" />
          </mxCell>
        </UserObject>
        <mxCell id="E5f-8hAcM4Bx_eA0MOKK-2" value="" style="endArrow=classic;html=1;rounded=0;fontSize=12;startSize=8;endSize=8;curved=1;exitX=0.5;exitY=1;exitDx=0;exitDy=0;strokeWidth=2;fontStyle=2;entryX=0.5;entryY=0;entryDx=0;entryDy=0;" parent="1" source="E5f-8hAcM4Bx_eA0MOKK-1" target="HRplg5cOvGm0gZk61Yn5-19" edge="1">
          <mxGeometry width="50" height="50" relative="1" as="geometry">
            <mxPoint x="-1550" y="-237" as="sourcePoint" />
            <mxPoint x="-1870" y="-140" as="targetPoint" />
          </mxGeometry>
        </mxCell>
        <mxCell id="E5f-8hAcM4Bx_eA0MOKK-3" value="name" style="edgeLabel;html=1;align=center;verticalAlign=middle;resizable=0;points=[];fontSize=16;labelBackgroundColor=none;" parent="E5f-8hAcM4Bx_eA0MOKK-2" vertex="1" connectable="0">
          <mxGeometry x="0.1345" y="-2" relative="1" as="geometry">
            <mxPoint x="27" y="-8" as="offset" />
          </mxGeometry>
        </mxCell>
      </root>
    </mxGraphModel>
  </diagram>
</mxfile>
